<svg xmlns="http://www.w3.org/2000/svg" xmlns:xlink="http://www.w3.org/1999/xlink" width="60.21" height="60.21" viewBox="0 0 60.21 60.21">
  <defs>
    <filter id="Icon_ionic-ios-call" x="0" y="0" width="60.21" height="60.21" filterUnits="userSpaceOnUse">
      <feOffset dy="3" input="SourceAlpha"/>
      <feGaussianBlur stdDeviation="3" result="blur"/>
      <feFlood flood-opacity="0.161"/>
      <feComposite operator="in" in2="blur"/>
      <feComposite in="SourceGraphic"/>
    </filter>
  </defs>
  <g transform="matrix(1, 0, 0, 1, 0, 0)" filter="url(#Icon_ionic-ios-call)">
    <path id="Icon_ionic-ios-call-2" data-name="Icon ionic-ios-call" d="M45.481,37.554A35.454,35.454,0,0,0,38.075,32.6c-2.22-1.066-3.033-1.044-4.6.088-1.308.945-2.154,1.824-3.659,1.495s-4.472-2.571-7.351-5.44-5.121-5.846-5.439-7.352.56-2.352,1.494-3.659c1.132-1.571,1.165-2.385.088-4.6a34.756,34.756,0,0,0-4.956-7.407C12.033,4.1,11.67,4.455,10.78,4.773a16.319,16.319,0,0,0-2.626,1.4A7.923,7.923,0,0,0,5,9.5c-.626,1.352-1.352,3.868,2.341,10.44A58.252,58.252,0,0,0,17.582,33.6h0l.011.011.011.011h0A58.476,58.476,0,0,0,31.262,43.862c6.571,3.692,9.087,2.967,10.439,2.341a7.788,7.788,0,0,0,3.329-3.154,16.321,16.321,0,0,0,1.4-2.626C46.745,39.532,47.107,39.169,45.481,37.554Z" transform="translate(4.51 1.5)" fill="#a7ffb1"/>
  </g>
</svg>
