<svg id="Group_63" data-name="Group 63" xmlns="http://www.w3.org/2000/svg" width="33.05" height="27.133" viewBox="0 0 33.05 27.133">
  <g id="Group_54" data-name="Group 54" transform="translate(0 0)">
    <g id="Rectangle_158" data-name="Rectangle 158" fill="none" stroke="#b4b7bd" stroke-width="1">
      <rect width="33.05" height="18.728" rx="2" stroke="none"/>
      <rect x="0.5" y="0.5" width="32.05" height="17.728" rx="1.5" fill="none"/>
    </g>
    <g id="Group_47" data-name="Group 47" transform="translate(4.056 7.197)">
      <path id="Path_120" data-name="Path 120" d="M-11501.512-4617.729s-3.883-1.793-1.115-7.029-.781-8.486-.781-8.486" transform="translate(11506.987 4637)" fill="none" stroke="#b4b7bd" stroke-linecap="round" stroke-width="1"/>
      <g id="Polygon_17" data-name="Polygon 17" transform="translate(0 2.248) rotate(-25)" fill="#fff">
        <path d="M 4.318960189819336 3.045976161956787 L 0.9999977946281433 3.045976161956787 L 2.659478902816772 0.833330512046814 L 4.318960189819336 3.045976161956787 Z" stroke="none"/>
        <path d="M 2.659478902816772 1.666664838790894 L 1.999996662139893 2.545976161956787 L 3.318961143493652 2.545976161956787 L 2.659478902816772 1.666664838790894 M 2.659478902816772 -3.814697265625e-06 L 5.318958759307861 3.545976161956787 L -9.5367431640625e-07 3.545976161956787 L 2.659478902816772 -3.814697265625e-06 Z" stroke="none" fill="#b4b7bd"/>
      </g>
    </g>
    <g id="Group_48" data-name="Group 48" transform="translate(12.408 7.197)">
      <path id="Path_120-2" data-name="Path 120" d="M-11501.512-4617.729s-3.883-1.793-1.115-7.029-.781-8.486-.781-8.486" transform="translate(11506.987 4637)" fill="none" stroke="#b4b7bd" stroke-linecap="round" stroke-width="1"/>
      <g id="Polygon_17-2" data-name="Polygon 17" transform="translate(0 2.248) rotate(-25)" fill="#fff">
        <path d="M 4.318960189819336 3.045976161956787 L 0.9999977946281433 3.045976161956787 L 2.659478902816772 0.833330512046814 L 4.318960189819336 3.045976161956787 Z" stroke="none"/>
        <path d="M 2.659478902816772 1.666664838790894 L 1.999996662139893 2.545976161956787 L 3.318961143493652 2.545976161956787 L 2.659478902816772 1.666664838790894 M 2.659478902816772 -3.814697265625e-06 L 5.318958759307861 3.545976161956787 L -9.5367431640625e-07 3.545976161956787 L 2.659478902816772 -3.814697265625e-06 Z" stroke="none" fill="#b4b7bd"/>
      </g>
    </g>
    <g id="Group_49" data-name="Group 49" transform="translate(20.76 7.197)">
      <path id="Path_120-3" data-name="Path 120" d="M-11501.512-4617.729s-3.883-1.793-1.115-7.029-.781-8.486-.781-8.486" transform="translate(11506.987 4637)" fill="none" stroke="#b4b7bd" stroke-linecap="round" stroke-width="1"/>
      <g id="Polygon_17-3" data-name="Polygon 17" transform="translate(0 2.248) rotate(-25)" fill="#fff">
        <path d="M 4.318960189819336 3.045976161956787 L 0.9999977946281433 3.045976161956787 L 2.659478902816772 0.833330512046814 L 4.318960189819336 3.045976161956787 Z" stroke="none"/>
        <path d="M 2.659478902816772 1.666664838790894 L 1.999996662139893 2.545976161956787 L 3.318961143493652 2.545976161956787 L 2.659478902816772 1.666664838790894 M 2.659478902816772 -3.814697265625e-06 L 5.318958759307861 3.545976161956787 L -9.5367431640625e-07 3.545976161956787 L 2.659478902816772 -3.814697265625e-06 Z" stroke="none" fill="#b4b7bd"/>
      </g>
    </g>
  </g>
</svg>
