<svg xmlns="http://www.w3.org/2000/svg" width="59.685" height="59.685" viewBox="0 0 59.685 59.685">
  <path id="Icon_ionic-ios-call" data-name="Icon ionic-ios-call" d="M45.481,37.554A35.454,35.454,0,0,0,38.075,32.6c-2.22-1.066-3.033-1.044-4.6.088-1.308.945-2.154,1.824-3.659,1.495s-4.472-2.571-7.351-5.44-5.121-5.846-5.439-7.352.56-2.352,1.494-3.659c1.132-1.571,1.165-2.385.088-4.6a34.756,34.756,0,0,0-4.956-7.407C12.033,4.1,11.67,4.455,10.78,4.773a16.319,16.319,0,0,0-2.626,1.4A7.923,7.923,0,0,0,5,9.5c-.626,1.352-1.352,3.868,2.341,10.44A58.252,58.252,0,0,0,17.582,33.6h0l.011.011.011.011h0A58.476,58.476,0,0,0,31.262,43.862c6.571,3.692,9.087,2.967,10.439,2.341a7.788,7.788,0,0,0,3.329-3.154,16.321,16.321,0,0,0,1.4-2.626C46.745,39.532,47.107,39.169,45.481,37.554Z" transform="matrix(-0.719, 0.695, -0.695, -0.719, 66.043, 30.483)" fill="#ff7878"/>
</svg>
