<svg id="_5803976_air_cooler_fan_ventilation_wind_icon" data-name="5803976_air_cooler_fan_ventilation_wind_icon" xmlns="http://www.w3.org/2000/svg" width="29.988" height="29.995" viewBox="0 0 29.988 29.995">
  <path id="Path_129" data-name="Path 129" d="M43.147,34.976a4.637,4.637,0,0,0,1.521.261,4.895,4.895,0,0,0,3-1.059A5.224,5.224,0,0,0,49.8,29.847a6.161,6.161,0,0,0-2.6-4.481,6.788,6.788,0,0,0-5.988-.754c-4.827,1.382-5.835,5.862-6.052,7.685a.978.978,0,0,1-.241-.02c-1.358-1.507-1.1-2.491.051-5.77a4.752,4.752,0,0,0-.8-4.518,5.182,5.182,0,0,0-4.324-2.152,6.161,6.161,0,0,0-4.481,2.6,6.788,6.788,0,0,0-.754,5.988c1.382,4.83,5.869,5.835,7.688,6.052a.951.951,0,0,1-.02.238c-1.507,1.358-2.491,1.1-5.787-.048a4.752,4.752,0,0,0-4.518.8A5.224,5.224,0,0,0,19.838,39.8a6.161,6.161,0,0,0,2.6,4.481,6.232,6.232,0,0,0,3.625,1.1,8.6,8.6,0,0,0,2.376-.339c4.823-1.392,5.825-5.889,6.039-7.705a.9.9,0,0,1,.231.02c1.358,1.514,1.11,2.495-.041,5.794a4.752,4.752,0,0,0,.8,4.518,5.312,5.312,0,0,0,4.043,2.152,2.7,2.7,0,0,0,.289,0,6.161,6.161,0,0,0,4.481-2.6,6.788,6.788,0,0,0,.754-5.988c-1.388-4.847-5.876-5.848-7.7-6.066a.82.82,0,0,1,.024-.238C38.871,33.571,39.852,33.829,43.147,34.976ZM41.586,25.92a5.565,5.565,0,0,1,4.84.56,4.793,4.793,0,0,1,2.037,3.469A3.9,3.9,0,0,1,46.847,33.1a3.394,3.394,0,0,1-3.245.591c-3.011-1.049-4.674-1.619-6.605-.207a2.61,2.61,0,0,0-.509-.6C36.518,31.9,37.007,27.23,41.586,25.92Zm-6.765,7.709a1.185,1.185,0,1,1-.84.349,1.188,1.188,0,0,1,.84-.349Zm-8.9-5.574a5.565,5.565,0,0,1,.56-4.84,4.793,4.793,0,0,1,3.469-2.037A3.9,3.9,0,0,1,33.1,22.794a3.394,3.394,0,0,1,.591,3.245c-1.049,3.011-1.619,4.674-.207,6.605a2.529,2.529,0,0,0-.6.509C31.9,33.123,27.231,32.634,25.921,28.055ZM28.056,43.72a5.565,5.565,0,0,1-4.84-.56,4.793,4.793,0,0,1-2.037-3.469,3.9,3.9,0,0,1,1.616-3.153,3.394,3.394,0,0,1,3.245-.591c3.014,1.049,4.677,1.623,6.612.2a2.536,2.536,0,0,0,.5.591C33.124,37.705,32.649,42.407,28.056,43.72Zm15.665-2.135a5.565,5.565,0,0,1-.56,4.84,4.793,4.793,0,0,1-3.469,2.037,3.9,3.9,0,0,1-3.153-1.616,3.394,3.394,0,0,1-.591-3.245c1.049-3.014,1.623-4.677.2-6.612a2.536,2.536,0,0,0,.591-.5C37.7,36.517,42.408,36.986,43.721,41.585Z" transform="translate(-19.827 -19.826)" fill="#fff"/>
</svg>
