<svg xmlns="http://www.w3.org/2000/svg" width="35.708" height="29.094" viewBox="0 0 35.708 29.094">
  <g id="Group_64" data-name="Group 64" transform="translate(0.674 0.539)">
    <g id="Group_55" data-name="Group 55" transform="translate(0 0)">
      <g id="Group_51" data-name="Group 51" transform="translate(7.148 8.62)">
        <path id="Path_120" data-name="Path 120" d="M-11501.512-4617.729s-3.883-1.793-1.115-7.029-.781-8.486-.781-8.486" transform="translate(11506.987 4637)" fill="none" stroke="#b4b7bd" stroke-linecap="round" stroke-width="1"/>
        <g id="Polygon_17" data-name="Polygon 17" transform="translate(0 2.248) rotate(-25)" fill="#fff">
          <path d="M 4.318960189819336 3.045976161956787 L 0.9999977946281433 3.045976161956787 L 2.659478902816772 0.833330512046814 L 4.318960189819336 3.045976161956787 Z" stroke="none"/>
          <path d="M 2.659478902816772 1.666664838790894 L 1.999996662139893 2.545976161956787 L 3.318961143493652 2.545976161956787 L 2.659478902816772 1.666664838790894 M 2.659478902816772 -3.814697265625e-06 L 5.318958759307861 3.545976161956787 L -9.5367431640625e-07 3.545976161956787 L 2.659478902816772 -3.814697265625e-06 Z" stroke="none" fill="#b4b7bd"/>
        </g>
      </g>
      <g id="Group_52" data-name="Group 52" transform="translate(13.066 8.62)">
        <path id="Path_120-2" data-name="Path 120" d="M-11501.512-4617.729s-3.883-1.793-1.115-7.029-.781-8.486-.781-8.486" transform="translate(11506.987 4637)" fill="none" stroke="#b4b7bd" stroke-linecap="round" stroke-width="1"/>
        <g id="Polygon_17-2" data-name="Polygon 17" transform="translate(0 2.248) rotate(-25)" fill="#fff">
          <path d="M 4.318960189819336 3.045976161956787 L 0.9999977946281433 3.045976161956787 L 2.659478902816772 0.833330512046814 L 4.318960189819336 3.045976161956787 Z" stroke="none"/>
          <path d="M 2.659478902816772 1.666664838790894 L 1.999996662139893 2.545976161956787 L 3.318961143493652 2.545976161956787 L 2.659478902816772 1.666664838790894 M 2.659478902816772 -3.814697265625e-06 L 5.318958759307861 3.545976161956787 L -9.5367431640625e-07 3.545976161956787 L 2.659478902816772 -3.814697265625e-06 Z" stroke="none" fill="#b4b7bd"/>
        </g>
      </g>
      <g id="Group_53" data-name="Group 53" transform="translate(18.982 8.62)">
        <path id="Path_120-3" data-name="Path 120" d="M-11501.512-4617.729s-3.883-1.793-1.115-7.029-.781-8.486-.781-8.486" transform="translate(11506.987 4637)" fill="none" stroke="#b4b7bd" stroke-linecap="round" stroke-width="1"/>
        <g id="Polygon_17-3" data-name="Polygon 17" transform="translate(0 2.248) rotate(-25)" fill="#fff">
          <path d="M 4.318960189819336 3.045976161956787 L 0.9999977946281433 3.045976161956787 L 2.659478902816772 0.833330512046814 L 4.318960189819336 3.045976161956787 Z" stroke="none"/>
          <path d="M 2.659478902816772 1.666664838790894 L 1.999996662139893 2.545976161956787 L 3.318961143493652 2.545976161956787 L 2.659478902816772 1.666664838790894 M 2.659478902816772 -3.814697265625e-06 L 5.318958759307861 3.545976161956787 L -9.5367431640625e-07 3.545976161956787 L 2.659478902816772 -3.814697265625e-06 Z" stroke="none" fill="#b4b7bd"/>
        </g>
      </g>
      <path id="Path_122" data-name="Path 122" d="M-11655.976-4217.927c-16.639-16.638-34.364,0-34.364,0l11.595,14.98h10.806Z" transform="translate(11690.34 4225.321)" fill="none" stroke="#b4b7bd" stroke-width="1"/>
    </g>
  </g>
</svg>
