<svg xmlns="http://www.w3.org/2000/svg" width="233.751" height="90.399" viewBox="0 0 233.751 90.399">
  <g id="Group_77" data-name="Group 77" transform="translate(-156.164 -33.858)">
    <path id="Path_104" data-name="Path 104" d="M211.369-1131.633c-.094.094-.126,6.782-.136,30.005,0,16.441-.042,30.151-.094,30.465a10.3,10.3,0,0,1-.6,1.978c-.063.084-4.94.743-9.869,1.319-1.183.146-2.5.3-2.93.366s-1.036.1-1.34.1c-.617,0-.586.136-.283-1.151.073-.314.167-.764.209-.994a23.969,23.969,0,0,1,2.753-5.651,20.587,20.587,0,0,1,7.556-6.646l1.1-.576.031-.984a3.793,3.793,0,0,0-.063-1.078c-.22-.22-3.872,1.706-4.908,2.574a5.4,5.4,0,0,1-.764.482,11.691,11.691,0,0,0-2.888,2.344,19.316,19.316,0,0,0-4.249,6.133,12.326,12.326,0,0,0-1.1,4.531,5.773,5.773,0,0,1-.146,1.287c-.22.136-8.488.816-11.92.984-6.269.293-11.617-.073-11.617-.8,0-.366,1.936-1.559,4.343-2.679,1.518-.7,5.651-2.366,6.1-2.449.157-.021,1.769.094,3.579.272,9.252.89,8.655.879,8.959.147.178-.419.052-1.026-.23-1.13-.094-.032-.9-.157-1.8-.272s-2-.251-2.428-.314-1.329-.157-1.988-.23a5.835,5.835,0,0,1-1.266-.21,9.914,9.914,0,0,0-1.821-.146,16.684,16.684,0,0,1-1.831-.094c-.042-.031-1.6-.188-3.464-.366s-4.846-.461-6.635-.628c-4.751-.45-6.122-.6-6.185-.649-.021-.031-.251-.335-.5-.67-.45-.586-.46-.618-.314-.911.136-.262.136-.712-.052-3.924-.23-3.872-.492-8.509-.9-16.033-.136-2.564-.283-4.741-.314-4.835a13.8,13.8,0,0,1,.764-3.318,2.381,2.381,0,0,1,.544-.963c.272-.2,1.361-.335,6.8-.826,1.3-.126,3.862-.356,5.7-.534s4.835-.45,6.646-.617,4.8-.45,6.646-.617,4.406-.408,5.7-.534a54.769,54.769,0,0,0,6.719-.764c.094-.074.565-.429,1.047-.806s1.7-1.3,2.7-2.072c1.371-1.036,1.852-1.465,1.894-1.674a10.227,10.227,0,0,0,.084-1.371l.011-1.089-.23.21c-.136.115-1.036.826-2.02,1.569s-2.376,1.811-3.108,2.376l-1.34,1.016-.858.094c-.806.094-4.479.439-10.026.942-1.3.115-3.056.282-3.925.366s-2.868.283-4.448.419l-6.175.576c-1.811.167-5.107.471-7.326.68s-4.176.387-4.364.418a3.039,3.039,0,0,0-.973.6,3.319,3.319,0,0,0-.994,1.287,14.852,14.852,0,0,0-1.026,3.464,6.789,6.789,0,0,1-.283,1.109c-.136.283-.021,3.108.377,9.66.084,1.381.262,4.72.408,7.431s.314,5.557.377,6.332.1,1.6.1,1.832c-.01.45.094.649.806,1.517a2.011,2.011,0,0,1,.44.775,1.075,1.075,0,0,0,.523.8c.2.1,2.093.314,7.117.785,4.123.4,4.082.387,4.134.46a4.1,4.1,0,0,1-1.026.523,38.981,38.981,0,0,0-4.887,2.533,5,5,0,0,0-1.884,1.884c-.283.555-.262.911.241,3.391.22,1.036.555,2.731.764,3.768s.387,1.957.419,2.052c.094.324,1.622.921,4.165,1.611,1.193.324,2.24.408,7.022.576a93.228,93.228,0,0,0,11.094-.1c3.119-.272,3.161-.272,3.255.021.031.136.366.858.722,1.622a22.591,22.591,0,0,0,10.371,10.424,23.766,23.766,0,0,0,13.856,2.219,23.207,23.207,0,0,0,16.054-10.1,21.937,21.937,0,0,0,3.475-9.807,2.241,2.241,0,0,1,.188-.848c.063-.052,2.114-.44,4.563-.858,7.368-1.266,12.328-2.167,18.733-3.4,3.694-.7,3.652-.7,4.762-.628a39.736,39.736,0,0,0,7.012-.157,3.4,3.4,0,0,1,.733-.147,5.414,5.414,0,0,0,1.685-.408.575.575,0,0,1,.314-.073,1.754,1.754,0,0,0,.534-.115c.157-.063.387-.157.5-.2s.345-.136.5-.2a1.7,1.7,0,0,1,.513-.115,7.176,7.176,0,0,0,1.34-.482,5.891,5.891,0,0,0,1.716-.984,2.027,2.027,0,0,1,1.026-.576c.377-.063,5.84-1.214,9.974-2.1,4.846-1.047,4.343-.994,4.772-.45a28.253,28.253,0,0,0,3.37,3.286,15.091,15.091,0,0,0,3.454,1.727.27.27,0,0,1,.23.1.528.528,0,0,0,.356.1.712.712,0,0,1,.366.073,6.581,6.581,0,0,0,1.737.408,3.073,3.073,0,0,1,.68.147,36.708,36.708,0,0,0,7.064.115,10.423,10.423,0,0,0,2.564-.324,1.824,1.824,0,0,1,.471-.157,17.327,17.327,0,0,0,5.023-2.083,15.649,15.649,0,0,0,4.071-3.925,1.368,1.368,0,0,1,.345-.408.173.173,0,0,0,.084-.136,3.072,3.072,0,0,1,.345-.649,11.333,11.333,0,0,0,1.047-2.166c.063-.23.157-.419.2-.419s.084-.136.084-.3a.553.553,0,0,1,.1-.377.452.452,0,0,0,.1-.324,1.142,1.142,0,0,1,.126-.492,5.691,5.691,0,0,0,.366-1.717c.063-.659-.1-.575,2.752-1.287,15.677-3.914,31.323-8.581,39.654-11.826a7.055,7.055,0,0,1,1.518-.492,3.47,3.47,0,0,1,.513.931c.2.482.848,1.978,1.434,3.328s1.339,3.1,1.674,3.872,1.015,2.355,1.517,3.506c1.015,2.334,2.522,5.808,3.925,9.053,1.465,3.381,1.926,4.438,2.041,4.615.063.094,1.067.806,2.25,1.6,1.57,1.047,2.072,1.423,1.873,1.423-.356,0-5.6-.387-7.054-.523-.628-.063-2.679-.219-4.553-.366-4.866-.366-9.8-.743-12.82-.994-1.434-.115-3.841-.3-5.337-.418-3.087-.241-5.892-.461-8.791-.68-5.453-.439-7.389-.576-8.038-.576s-.743.031-1.026.3a.938.938,0,0,0-.042,1.37c.283.262.042.23,4.5.576,1.151.094,3.883.3,6.07.481s5.484.418,7.326.565,4.218.324,5.285.419,3.161.251,4.657.366c3.391.261,7.064.544,11.407.889,3.38.272,6.876.544,10.853.848a19.426,19.426,0,0,0,2.428.1.914.914,0,0,0,.691-.942.928.928,0,0,0-.743-.994,43.05,43.05,0,0,1-3.82-2.386,21.724,21.724,0,0,1-3.59-2.606c-.167-.356-1.664-3.8-2.522-5.8-.617-1.434-1.392-3.213-2.909-6.7-1.737-4.019-2.993-6.9-3.579-8.268-.335-.775-.848-1.967-1.151-2.648a11.217,11.217,0,0,1-.5-1.277c.021-.01.67-.334,1.444-.711s1.737-.88,2.125-1.12a2.974,2.974,0,0,1,1.151-.471.877.877,0,0,0,.68-.314c.3-.355.283-.6-.178-2.093a56.012,56.012,0,0,1-1.852-8.216,1.946,1.946,0,0,0-.408-1.444c-.858-1.015-3.673-1.591-7.818-1.591-1.3,0-1.664.032-1.622.125.031.073.23.524.44.984l.387.848,1.737.073c2.543.115,4.793.471,4.992.8.084.136-.377.565-1.2,1.109a23.923,23.923,0,0,1-4.008,1.968c-.283.011-.345-.073-.879-1.036-.325-.575-1.256-2.459-2.072-4.186s-2-4.061-2.627-5.18l-1.141-2.041-.68-.408a1.935,1.935,0,0,0-1.5-.387c-.691.01-7.085-.157-13.1-.356-.921-.021-2.564-.073-3.663-.1s-2.69-.073-3.558-.1-3.307-.1-5.442-.157-4.448-.125-5.149-.167l-1.287-.063v1.9h.764c.408,0,7.692.21,16.169.461s15.5.439,15.6.408c.188-.052.565.639,3.621,6.614a24.124,24.124,0,0,0,1.277,2.313,20.818,20.818,0,0,1,1.476,3.381,2.794,2.794,0,0,1-.973.5c-4.521,1.7-8.425,3-14.066,4.731l-1.392.429-2.323-.931c-1.266-.513-3.328-1.34-4.563-1.842-2.376-.963-4.28-1.738-8.739-3.538-1.5-.607-3.265-1.318-3.925-1.591-7.294-2.972-8.383-3.4-8.718-3.4-.23,0-.419.1-.7.419a1.6,1.6,0,0,1-.492.419,1.059,1.059,0,0,0-.356.272c-.283.3-.283.387-.1,5.494l.094,2.365.618.67c.345.366.827.879,1.067,1.141l.429.471-.052-1.151c-.115-2.3-.272-7.818-.23-7.86a6.971,6.971,0,0,1,1.183.419c.628.251,2.135.858,3.339,1.35s3.1,1.256,4.186,1.7,3.192,1.287,4.657,1.884,3.443,1.392,4.4,1.779,2.836,1.151,4.186,1.7c2.972,1.2,2.847,1.13,2.512,1.266-.262.1-3.558,1.057-5.18,1.5-.46.126-1.256.346-1.779.482-1.936.544-3.192.879-4.971,1.35-1,.272-2.135.565-2.512.67-2.459.649-6.2,1.58-6.217,1.549-.01-.01-.3-.471-.638-1.015a13.161,13.161,0,0,0-1.612-1.988,11.448,11.448,0,0,0-2.627-2.2c-.492-.314-.984-.66-1.109-.764a.735.735,0,0,0-.387-.188c-.094,0-.178-.052-.178-.1s-.063-.1-.136-.1a2.985,2.985,0,0,1-.691-.367,6.622,6.622,0,0,0-.6-.366c-.073,0-2.083-1.3-2.3-1.486a.783.783,0,0,0-.283-.188,17.881,17.881,0,0,1-2.166-1.518.433.433,0,0,0-.22-.157,7.34,7.34,0,0,1-1.193-.816c-.052-.042-.366-.272-.68-.513a6.112,6.112,0,0,1-.774-.649.754.754,0,0,0-.324-.22.412.412,0,0,1-.272-.178,8.182,8.182,0,0,0-.722-.6c-.314-.23-.67-.513-.785-.617a6.324,6.324,0,0,0-.576-.471c-.2-.157-.576-.482-.837-.712s-.764-.67-1.109-.963a5.711,5.711,0,0,1-.879-.869c-.136-.178-.471-.586-.743-.91a3.246,3.246,0,0,1-.513-.67.788.788,0,0,0-.178-.293,7.739,7.739,0,0,1-1.287-3.307,8.154,8.154,0,0,1,.209-2.763c.073-.2.167-.461.209-.576a12.037,12.037,0,0,1,1.026-2,15.487,15.487,0,0,1,2.177-2.24.408.408,0,0,0,.241-.136,8.484,8.484,0,0,1,1.79-.921,9.475,9.475,0,0,1,3.349,0,7.766,7.766,0,0,1,1.779.9.431.431,0,0,0,.241.157,11.156,11.156,0,0,1,1.873,1.8c.042.1.126.188.188.188a7.262,7.262,0,0,1,1.047,2.2,10.479,10.479,0,0,1,.471,3.506c0,.743.01,1.465.031,1.59l.021.241h4.4c4.312,0,4.385,0,4.5-.209a35.125,35.125,0,0,0-.042-5.243,3.789,3.789,0,0,0-.377-1.925c-.063-.031-.1-.241-.1-.45a1.146,1.146,0,0,0-.157-.586.9.9,0,0,1-.157-.44c0-.136-.042-.272-.1-.3a.332.332,0,0,1-.1-.251,17.967,17.967,0,0,0-1.737-3.433,19.631,19.631,0,0,0-3.223-3.38.694.694,0,0,1-.335-.188,4.333,4.333,0,0,0-.827-.492c-.345-.167-.806-.408-1.015-.544a1.651,1.651,0,0,0-.555-.241.944.944,0,0,1-.345-.094,4.469,4.469,0,0,0-.649-.22,7.454,7.454,0,0,1-.733-.241,11.69,11.69,0,0,0-2.145-.408,43.514,43.514,0,0,0-5.955-.084,1.7,1.7,0,0,1-.7.1,1.286,1.286,0,0,0-.67.1.638.638,0,0,1-.408.1,1.078,1.078,0,0,0-.544.157.826.826,0,0,1-.429.157c-.126,0-.262.042-.293.1a.4.4,0,0,1-.293.1,13.216,13.216,0,0,0-2.732,1.339,3.493,3.493,0,0,1-.544.335,3.047,3.047,0,0,0-.5.366,2.838,2.838,0,0,1-.523.366,23.583,23.583,0,0,0-3.276,3.286,5.783,5.783,0,0,1-.513.68,1.042,1.042,0,0,0-.251.356,2.712,2.712,0,0,1-.282.523,9.289,9.289,0,0,0-.775,1.507c-.052.136-.136.345-.188.471s-.126.345-.168.471a.475.475,0,0,1-.22.283c-.084.032-2.522.01-5.411-.042-5.243-.115-5.254-.115-5.432-.346a.783.783,0,0,1-.188-.377,6.97,6.97,0,0,0-.879-2.187,10.653,10.653,0,0,0-2.072-3.234,18.472,18.472,0,0,0-2.229-2.124,1.307,1.307,0,0,1-.408-.241,14.126,14.126,0,0,0-3.789-1.643.529.529,0,0,1-.335-.126,6.16,6.16,0,0,0-2.062-.419,43.513,43.513,0,0,0-5.955-.084,1.7,1.7,0,0,1-.7.1,1.286,1.286,0,0,0-.67.1.54.54,0,0,1-.366.1,3.434,3.434,0,0,0-1.277.429,1,1,0,0,1-.366.094,13.643,13.643,0,0,0-2.679,1.339,2.7,2.7,0,0,1-.607.335.786.786,0,0,0-.335.22,5.218,5.218,0,0,1-.6.46,21.552,21.552,0,0,0-4.029,4.322c-.052.1-.293.492-.534.858a6.67,6.67,0,0,0-.576,1.183,1.314,1.314,0,0,1-.3.6c-.084.042-2.114.042-4.5-.01s-4.657-.084-5.044-.094c-.67,0-.7-.01-.858-.334a1.468,1.468,0,0,1-.167-.461,6.239,6.239,0,0,0-.743-1.423,1.039,1.039,0,0,1-.2-.345,12.4,12.4,0,0,0-.722-1.026,12.982,12.982,0,0,0-2.616-2.637c-.366-.293-.816-.638-.994-.785a3.751,3.751,0,0,0-.638-.418,5.727,5.727,0,0,1-.628-.366,2.4,2.4,0,0,0-.952-.471c-.084,0-.147-.052-.147-.1s-.073-.1-.157-.1c-.157,0-.241-.031-.869-.345a1.784,1.784,0,0,0-.544-.177.358.358,0,0,1-.262-.1c-.031-.063-.2-.1-.366-.1a.539.539,0,0,1-.366-.1c-.031-.063-.178-.1-.3-.1a2.051,2.051,0,0,1-.617-.157,2.263,2.263,0,0,0-.68-.157.764.764,0,0,1-.4-.094c-.188-.2-1.947-.241-11.5-.283C213.7-1131.748,211.463-1131.727,211.369-1131.633Zm16.473,7.609a2.112,2.112,0,0,0,.722.146,5.764,5.764,0,0,1,1.779.387c.178.073.408.167.523.209a9.065,9.065,0,0,1,3.579,2.4,6.627,6.627,0,0,1,1.58,2.124,6.184,6.184,0,0,1,.544,1.308c0,.136.052.241.1.241s.1.126.1.272a1.142,1.142,0,0,0,.126.492,9.21,9.21,0,0,1,.314,2.585,9.4,9.4,0,0,1-.314,2.637.894.894,0,0,0-.126.513c0,.219-.042.429-.1.46a.366.366,0,0,0-.1.272,1.027,1.027,0,0,1-.1.408c-.052.115-.146.293-.188.388a6.57,6.57,0,0,1-1.643,2.271,7.58,7.58,0,0,1-2.721,1.978c-.23.115-.5.241-.6.293a1.119,1.119,0,0,1-.419.094,1.393,1.393,0,0,0-.5.157,84.5,84.5,0,0,1-10.026.031c-.094-.094-.126-2.428-.126-9.869,0-5.369.031-9.785.073-9.816C220.422-1124.16,227.727-1124.129,227.842-1124.024Zm44.73.523a8.825,8.825,0,0,1,1.79.921.408.408,0,0,0,.241.136,11.478,11.478,0,0,1,2.02,2.093c.167.262.44.754.607,1.1s.335.711.387.806a1.425,1.425,0,0,1,.084.439.453.453,0,0,0,.1.324,1.194,1.194,0,0,1,.1.639,2.283,2.283,0,0,0,.167.889c.136.261.147.533.084,1.507a9,9,0,0,0,0,1.455l.063.272h4.364c4.019,0,4.364-.01,4.49-.188a17.3,17.3,0,0,0,.042-4.155,2.187,2.187,0,0,1-.1-.858v-.785l4.845.073c2.658.042,4.877.115,4.929.157a1.458,1.458,0,0,1,.011.649,53.918,53.918,0,0,0,0,5.526,3.205,3.205,0,0,0,.167.89.828.828,0,0,1,.094.44,15.968,15.968,0,0,0,1.957,4.908,1.241,1.241,0,0,1,.241.439.156.156,0,0,0,.084.147,2.971,2.971,0,0,1,.46.555,24.167,24.167,0,0,0,3.8,3.558c.733.576,1.538,1.224,1.779,1.434a1.907,1.907,0,0,0,.544.4,1.664,1.664,0,0,1,.45.366,1.5,1.5,0,0,0,.471.367.715.715,0,0,1,.324.188c.188.178,1.214.963,1.675,1.277.429.293,2.993,2.146,3.38,2.428a5.68,5.68,0,0,0,.534.366c.084.042.576.355,1.078.7s1.078.723,1.256.837a.992.992,0,0,1,.366.283.164.164,0,0,0,.147.094,1.356,1.356,0,0,1,.46.261,1.44,1.44,0,0,0,.439.262.646.646,0,0,1,.283.209.628.628,0,0,0,.3.209,1,1,0,0,1,.387.23,3.055,3.055,0,0,0,.534.4c.45.251,1.256,1.068,1.162,1.161s-1.957.544-5.735,1.423c-.858.2-1.947.46-2.407.565s-1.256.293-1.779.408-1.319.293-1.779.408c-2.533.6-3.192.743-3.339.743s-.167-.126-.167-.586a2.656,2.656,0,0,0-.366-1.529c-.052-.042-2.02-.083-4.364-.083h-4.259l-.136.23a8.512,8.512,0,0,0-.188,2.177l-.052,1.936-1.57.346c-2.1.46-4.05.847-4.228.858-.115,0-.126-.136-.063-.711a22.778,22.778,0,0,0-.366-6.039c-.042-.115-.167-.471-.272-.785a4.77,4.77,0,0,0-.272-.68.524.524,0,0,1-.084-.272,11.519,11.519,0,0,0-1.831-3.129,23.838,23.838,0,0,0-2.606-2.512c-.021,0-.5-.3-1.068-.69s-1.193-.754-1.4-.858a7.645,7.645,0,0,1-.858-.513,3.852,3.852,0,0,0-.555-.345,25.008,25.008,0,0,1-2.439-1.59.173.173,0,0,0-.136-.084,14.925,14.925,0,0,1-2.093-1.423.968.968,0,0,0-.366-.251,2.574,2.574,0,0,1-.565-.366c-.262-.2-.68-.513-.931-.7s-.659-.523-.921-.743a2.8,2.8,0,0,0-.534-.387,1.648,1.648,0,0,1-.387-.293,4.008,4.008,0,0,0-.576-.45c-.146-.094-.544-.419-.89-.712s-.984-.827-1.413-1.193a21.854,21.854,0,0,1-2.47-2.439,10.58,10.58,0,0,1-1.894-3.3.828.828,0,0,0-.146-.366,1.252,1.252,0,0,1-.094-.618,2.43,2.43,0,0,0-.126-.837c-.094-.2-.094-.293,0-.387a1.659,1.659,0,0,0,.126-.775,1.6,1.6,0,0,1,.1-.722c.063-.032.1-.168.1-.3a.9.9,0,0,1,.157-.44.766.766,0,0,0,.157-.377c0-.251.251-.68,1.12-1.967a13.584,13.584,0,0,1,1.978-1.989.452.452,0,0,0,.251-.157,5.136,5.136,0,0,1,1.57-.785,1.416,1.416,0,0,0,.419-.157A8.162,8.162,0,0,1,272.572-1123.5Zm-17.655,4.165c.042.021.042.1-.01.167-.262.335-.366,5.139-.146,6.719.073.461.146,1.068.188,1.361a1.661,1.661,0,0,0,.157.618.467.467,0,0,1,.094.262,13.469,13.469,0,0,0,1.026,2.679,12.31,12.31,0,0,0,2.972,3.977,24.622,24.622,0,0,0,2.951,2.48c.4.3.921.733,1.162.942a1.906,1.906,0,0,0,.544.4,1.665,1.665,0,0,1,.45.366,1.94,1.94,0,0,0,.429.367,7.933,7.933,0,0,1,.931.649c.471.366.932.7,1.026.764s.46.314.8.576.764.565.952.68c.387.241,1.5,1.036,1.936,1.382a1.078,1.078,0,0,0,.387.24.808.808,0,0,1,.3.178c.167.157,1.319.953,1.936,1.34.094.052.429.272.733.482s.638.4.722.439a6.953,6.953,0,0,1,.628.439,4.745,4.745,0,0,0,.7.46,17.969,17.969,0,0,1,2.365,2.323,7.694,7.694,0,0,1,1.015,1.978.358.358,0,0,0,.1.262c.063.031.1.251.1.471a.8.8,0,0,0,.1.471,4.263,4.263,0,0,1,.1,1.308,4.268,4.268,0,0,1-.1,1.308.705.705,0,0,0-.1.439,2.605,2.605,0,0,1-.628,1.706c-.136.073-5.955,1.256-12.6,2.574l-1.873.366-.408-.4a3.45,3.45,0,0,1-.617-.838,1.5,1.5,0,0,0-.3-.5.366.366,0,0,1-.1-.272c0-.1-.042-.2-.1-.2s-.1-.095-.1-.2a.33.33,0,0,0-.1-.272.433.433,0,0,1-.1-.3,1.443,1.443,0,0,0-.157-.545,1.854,1.854,0,0,1-.157-.69c0-.21-.042-.419-.1-.45a13.488,13.488,0,0,1-.1-2.491c0-2.324-.052-2.836-.345-3.3-.063-.094-1.057-.126-4.364-.126h-4.28l-.167.314a9.689,9.689,0,0,0-.157,2.92,20.687,20.687,0,0,0,.1,2.857,5.959,5.959,0,0,1,.22,1.078c.188,1.507.22,1.675.314,1.779a.7.7,0,0,1,.094.387,1.271,1.271,0,0,0,.094.482,9.214,9.214,0,0,1,.377.911,14.993,14.993,0,0,0,.6,1.444c.052.115.084.209.063.23-.052.042-3.935.764-6.4,1.193l-2.292.4-.2-.481c-.115-.262-.241-.575-.293-.691s-.146-.4-.22-.628a2.855,2.855,0,0,0-.22-.523.634.634,0,0,1-.084-.324.533.533,0,0,0-.157-.356.5.5,0,0,1-.157-.325.3.3,0,0,0-.1-.251.332.332,0,0,1-.1-.251,2.27,2.27,0,0,0-.2-.6,3.631,3.631,0,0,1-.272-.7.746.746,0,0,0-.167-.345.338.338,0,0,1-.094-.261c0-.2-.042-.293-.293-.8a1.13,1.13,0,0,1-.126-.44.339.339,0,0,0-.094-.261,2.079,2.079,0,0,1-.262-.555c-.1-.272-.22-.6-.272-.711s-.209-.545-.366-.942a15.414,15.414,0,0,0-.586-1.434.9.9,0,0,1-.094-.335,1.36,1.36,0,0,0-.146-.45,6.294,6.294,0,0,1-.272-.607c-.073-.178-.167-.4-.22-.492a.955.955,0,0,1-.094-.345,2.431,2.431,0,0,0-.262-.68,2.419,2.419,0,0,1-.262-.712.6.6,0,0,0-.084-.293,1.89,1.89,0,0,1-.22-.46c-.073-.2-.2-.513-.272-.681a11.037,11.037,0,0,1-.481-1.256,9.864,9.864,0,0,0-.366-.921,2.922,2.922,0,0,1-.251-.638,2.291,2.291,0,0,0-.209-.565,2.408,2.408,0,0,1-.209-.534,2.211,2.211,0,0,0-.167-.5l-.283-.659a3.671,3.671,0,0,0-.188-.439.918.918,0,0,1-.094-.325,2.1,2.1,0,0,0-.209-.544,2.22,2.22,0,0,1-.209-.524c0-.063.272-.251.607-.418a14.2,14.2,0,0,0,3.506-2.606,18.9,18.9,0,0,0,2.271-2.428,1.587,1.587,0,0,1,.262-.418,1.447,1.447,0,0,0,.262-.44.449.449,0,0,1,.157-.23,12.2,12.2,0,0,0,1.2-2.428.326.326,0,0,1,.1-.241.269.269,0,0,0,.1-.23,1.564,1.564,0,0,1,.147-.482,4.808,4.808,0,0,0,.345-1.382,1.449,1.449,0,0,1,.147-.523,1.339,1.339,0,0,0,.094-.6,2.868,2.868,0,0,1,.157-.89,32.729,32.729,0,0,0,.031-6.238,3.777,3.777,0,0,1-.2-.911c-.052-.377-.115-.868-.157-1.089l-.073-.408,4.49.073C252.8-1119.43,254.864-1119.367,254.916-1119.336Zm123.828,14.893c.387,1.706.628,2.669,1.172,4.584a4.682,4.682,0,0,1,.22,1.015c-.031.031-.774.2-1.664.377a12.229,12.229,0,0,0-3.129.984c-5.651,2.459-17.048,6.217-27.692,9.105-.293.083-1.727.471-3.192.879-2.5.68-3.569.973-6.112,1.633-6.311,1.654-7.42,1.926-7.493,1.8a.609.609,0,0,1,.031-.4,23.371,23.371,0,0,0-.439-5.484,1.171,1.171,0,0,1-.126-.419c-.042-.356-.356-.251,4.521-1.507,7.117-1.842,15.751-4.26,20.826-5.819.429-.136,1.12-.345,1.518-.471,9.409-2.878,17.373-5.976,20.3-7.9.649-.418.743-.45.806-.293C378.326-1106.254,378.536-1105.4,378.745-1104.443Zm-150.924,8.32a1,1,0,0,1,.167.45.534.534,0,0,0,.084.283,2.845,2.845,0,0,1,.22.523,7.229,7.229,0,0,0,.272.733c.188.439.324.785.471,1.2.073.2.2.512.272.7a1.6,1.6,0,0,1,.146.44,1.033,1.033,0,0,0,.126.356c.251.5.293.6.293.8a.367.367,0,0,0,.1.272c.063.031.1.178.1.3a.527.527,0,0,0,.136.356,1.935,1.935,0,0,1,.283.649,2.125,2.125,0,0,0,.23.586.334.334,0,0,1,.084.23,2.614,2.614,0,0,0,.262.7,2.89,2.89,0,0,1,.262.7.325.325,0,0,0,.1.241c.063.032.1.167.1.3a2.541,2.541,0,0,0,.262.775,3.034,3.034,0,0,1,.262.68.436.436,0,0,0,.084.23,2.859,2.859,0,0,1,.22.524c.073.23.167.512.22.628a11.371,11.371,0,0,1,.534,1.36,2.39,2.39,0,0,0,.22.513.647.647,0,0,1,.084.3,1.482,1.482,0,0,0,.167.523c.325.617.356.7.356.9a.367.367,0,0,0,.1.272.29.29,0,0,1,.1.24,2.609,2.609,0,0,0,.262.7,2.888,2.888,0,0,1,.262.7.326.326,0,0,0,.1.241.3.3,0,0,1,.1.251,2.677,2.677,0,0,0,.262.722,2.661,2.661,0,0,1,.262.753c0,.115.052.209.1.209s.1.136.1.293a.763.763,0,0,0,.094.4,3.565,3.565,0,0,1,.272.617,4.914,4.914,0,0,0,.272.628,1.135,1.135,0,0,1,.115.408l.031.314-2.983.492c-1.643.283-3.757.618-4.709.764s-2.93.46-4.4.7-2.92.45-3.213.482l-.555.062v-.785a4.737,4.737,0,0,0-.157-1.235c-.136-.387-.157-2-.157-12.035,0-6.363.031-11.617.073-11.648s1.706-.073,3.7-.073h3.632Zm93,8.027a1.98,1.98,0,0,1,.419.984.432.432,0,0,0,.1.3c.063.031.1.22.1.408a1.646,1.646,0,0,0,.157.649,2.994,2.994,0,0,1,.157,1.193,3,3,0,0,1-.157,1.193,1.819,1.819,0,0,0-.157.7,1.687,1.687,0,0,1-.094.6,2.144,2.144,0,0,0-.157.356c-.031.115-.345.241-1.026.4-.534.126-1.842.429-2.909.69-1.863.44-4.082.963-5.965,1.392-3.579.827-4.615,1.057-4.8,1.057-.293,0-.858-.638-1.287-1.444a5.591,5.591,0,0,0-.733-1.068.969.969,0,0,1-.4-.921,2.812,2.812,0,0,1,.094-.775.434.434,0,0,0-.052-.45,1.87,1.87,0,0,1-.147-.859c0-.722.052-.785.785-.91.45-.084,5.788-1.3,8.058-1.842.754-.178,1.643-.387,1.988-.471,1.35-.3,3.914-.932,4.814-1.151.523-.136.963-.251.994-.251S320.734-1088.222,320.818-1088.1Zm-25.871,6.415a2.7,2.7,0,0,0,.125.838,2.85,2.85,0,0,1,.147.575,6.181,6.181,0,0,0,.272,1.308c.052.115.167.4.262.628s.22.5.272.6a.916.916,0,0,1,.094.293,3.805,3.805,0,0,0,.272.69,1.712,1.712,0,0,1,.22.7,3.557,3.557,0,0,1-1.183.366c-.628.136-1.779.377-2.554.545s-2.093.44-2.93.617c-4.919,1.057-4.887,1.047-4.594.743a6.264,6.264,0,0,0,.722-1.1,4.131,4.131,0,0,1,.366-.575,2.312,2.312,0,0,0,.366-.681c0-.083.052-.157.1-.157s.1-.063.1-.136a2.85,2.85,0,0,1,.262-.68,2.87,2.87,0,0,0,.262-.691.3.3,0,0,1,.1-.22c.063-.031.1-.178.1-.314a.442.442,0,0,1,.1-.314c.063-.031.1-.22.1-.419a.632.632,0,0,1,.094-.408,1.321,1.321,0,0,0,.147-.534,2.72,2.72,0,0,1,.2-.7,2.825,2.825,0,0,0,.146-.272c.031-.042,1.34-.356,3.443-.8.984-.21,1.967-.419,2.2-.471C294.874-1082.4,294.916-1082.382,294.947-1081.681Zm24.72,2.617a2.523,2.523,0,0,1-.806,1.1,6.98,6.98,0,0,1-2.124,1.413c-.314.157-.659.324-.754.377a1.06,1.06,0,0,1-.408.094,1.1,1.1,0,0,0-.429.115,8.451,8.451,0,0,1-2.794.377,4.9,4.9,0,0,1-1.507-.063.763.763,0,0,0-.44-.115,1.068,1.068,0,0,1-.534-.157.793.793,0,0,0-.419-.157,1.658,1.658,0,0,1-.565-.167c-.429-.22-.3-.3.764-.523.408-.084,1.413-.314,2.219-.5s2.742-.649,4.291-1,2.941-.691,3.087-.733C319.573-1079.127,319.667-1079.127,319.667-1079.064Zm-42.386.5a4.276,4.276,0,0,1-1.193,1.182c-.167.105-.429.283-.576.377a9.024,9.024,0,0,1-.848.461c-.314.146-.659.314-.753.366a1.06,1.06,0,0,1-.408.094,1.1,1.1,0,0,0-.429.115c-.869.461-4.992.461-5.463-.01a.418.418,0,0,0-.272-.1c-.251,0-.848-.314-.785-.418a5.309,5.309,0,0,1,1.067-.262c.565-.1,2.156-.419,3.537-.7s3.129-.628,3.872-.774,1.528-.293,1.727-.345C277.271-1078.719,277.281-1078.708,277.281-1078.562Zm-21.14,4.741a17.266,17.266,0,0,0,4.908,4.3l1.068.534-.345.115a7.542,7.542,0,0,1-.973.209c-.8.126-3.213.565-5.233.952-1.769.345-7.776,1.413-13.187,2.355-2.554.45-9.272,1.559-10.989,1.831-.691.1-2.334.366-3.663.575-4.867.764-11.271,1.717-13.4,1.989-.628.083-1.643.22-2.25.3-1.863.262-5.515.733-8.582,1.11a71.319,71.319,0,0,1-7.357.68c-1.392.031-1.8.073-1.936.2a4.287,4.287,0,0,1-1.591.262c-.774.063-2.3.178-3.4.261-3.673.293-6.154.377-10.5.377-4.3,0-5.882-.084-6.886-.366l-.544-.157-.209-.858c-.314-1.3-1.088-5.327-1.026-5.39a2.543,2.543,0,0,1,.764.115c.387.084,1.235.21,1.863.283,1.476.146,7.336.146,10.047-.01,2.407-.136,9.346-.691,10.518-.837.429-.052,1.538-.168,2.459-.262s2.051-.2,2.512-.262,2.585-.314,4.71-.576c4.3-.534,6.9-.868,7.242-.942.23-.053.23-.031.209.774s-.01.848.293,1.161a1.54,1.54,0,0,0,.68.408c.2.052.555.146.785.2s2.02.1,3.977.115c4,.01,4.113-.01,4.479-.722.157-.324.178-.555.115-1.915a9.706,9.706,0,0,1-.01-1.538c.063,0,2.313-.346,5.829-.9.952-.146,3.694-.6,6.091-.994s4.427-.722,4.5-.722c.136,0,.4.461.4.7a3.034,3.034,0,0,0,.262.68,2.666,2.666,0,0,1,.262.723.332.332,0,0,0,.1.251.3.3,0,0,1,.1.251,1.451,1.451,0,0,0,.157.492c.262.523.638.565,4.877.565,3.255,0,3.893-.021,4.228-.168l.4-.157-.063-.848a2.86,2.86,0,0,0-.167-.952.666.666,0,0,1-.115-.4.419.419,0,0,0-.126-.335c-.1-.031-.1-.094-.021-.24s.052-.387-.147-1.026a10.246,10.246,0,0,0-.345-1.036c-.063-.115-.094-.209-.073-.22s.649-.126,1.392-.24,2.491-.439,3.872-.7,2.627-.481,2.773-.513C255.555-1074.449,255.66-1074.407,256.141-1073.821Zm-18.733,11.67a15.666,15.666,0,0,1-.481,2.836,20.8,20.8,0,0,1-20.439,15.468,21.213,21.213,0,0,1-17.53-9.252,14.984,14.984,0,0,1-1.873-3.631,11.425,11.425,0,0,1,1.706-.241c.89-.094,2-.209,2.459-.272s1.423-.168,2.145-.261c5.84-.7,15.793-2.041,18.262-2.46.345-.052,2.323-.366,4.4-.681,4.668-.711,6.551-1.015,9.157-1.455,1.12-.2,2.072-.355,2.124-.366S237.408-1062.33,237.408-1062.152Z" transform="translate(-5.313 1165.588)" fill="#fff"/>
    <path id="Path_105" data-name="Path 105" d="M744.988-1037.892c-.031.22-.083.67-.125.994l-.063.586,1.4.063c1.654.084,7.922.115,8,.042a5.1,5.1,0,0,0-.073-1l-.136-.952h-1.162c-.649,0-2.658-.031-4.469-.073l-3.307-.063Z" transform="translate(-527.588 1081.936)" fill="#fff"/>
    <path id="Path_106" data-name="Path 106" d="M1184.909-1030.77c-.031.136-.095.586-.136.994l-.073.764,1.926.01c1.057,0,2.009.021,2.125.042.178.031.188-.011.125-.659-.031-.387-.063-.859-.063-1.047V-1031h-1.926C1184.983-1031,1184.962-1031,1184.909-1030.77Z" transform="translate(-921.45 1075.4)" fill="#fff"/>
    <path id="Path_107" data-name="Path 107" d="M745.07-689.574a8.514,8.514,0,0,1,.063,1.067c0,.481.042.733.136.753.063.021.67.241,1.329.482a21.079,21.079,0,0,1,8.812,6.206l.607.712v-3.108l-.858-.837a22.168,22.168,0,0,0-6.625-4.416,22.462,22.462,0,0,0-3.182-1.12C745-689.909,745-689.909,745.07-689.574Z" transform="translate(-527.795 769.976)" fill="#fff"/>
    <path id="Path_108" data-name="Path 108" d="M1565.87-1025.606a3.476,3.476,0,0,0-.178,1.413l.042.555h1.476c.817.01,3.025.031,4.908.063l3.422.063.052-.346c.136-.869.136-1.35.01-1.455-.262-.22-1.779-.3-5.589-.314-2.146,0-3.956-.031-4-.063S1565.9-1025.679,1565.87-1025.606Z" transform="translate(-1262.558 1070.656)" fill="#fff"/>
    <path id="Path_109" data-name="Path 109" d="M242.917-868.545a1.728,1.728,0,0,0-.408.3,1.144,1.144,0,0,1-.68.283c-.764.1-.921.2-1.015.649-.126.6-.084,3.924.167,13.532.241,9.1.22,8.938.712,9.2.209.115,2.6.314,8.079.691,2.041.136,3.956.282,4.239.314s2.522.2,4.971.366l5.474.4,1.015.083.565-.973.565-.963-.544-.052c-.733-.084-4.239-.346-7.075-.534-1.3-.084-2.9-.21-3.558-.262s-2.9-.22-4.971-.367c-4.95-.345-7.148-.523-7.211-.575-.021-.031-.136-4.061-.262-8.948s-.241-9.43-.272-10.079l-.042-1.183.44.052c.492.063,3.244.1,19.539.324,6.185.084,12.192.157,13.344.178l2.093.031-.031-.691a5.77,5.77,0,0,0-.115-.995l-.073-.3-3.349-.073c-1.831-.042-9.032-.146-16-.23s-13.27-.188-14.024-.22A8.385,8.385,0,0,0,242.917-868.545Z" transform="translate(-76.285 929.994)" fill="#fff"/>
    <path id="Path_110" data-name="Path 110" d="M1467.6-635.959a7.951,7.951,0,0,0-.7,1.57,10.751,10.751,0,0,0,.994,1.224,20.069,20.069,0,0,1,4.594,8.582,15.691,15.691,0,0,1,.523,4.678,16.116,16.116,0,0,1-.523,4.71,20.608,20.608,0,0,1-14.9,14.819,21.194,21.194,0,0,1-24.385-10.811,19.148,19.148,0,0,1-1.5-13.3c.22-.963.241-1.151.115-1.319-.074-.115-.367-.534-.649-.942a8.009,8.009,0,0,0-.6-.806,7.893,7.893,0,0,0-.764,2.752,9.337,9.337,0,0,1-.345,1.779,8.4,8.4,0,0,0-.324,2.721,20.407,20.407,0,0,0,2.166,9.921,22.984,22.984,0,0,0,17.331,12.517,29.317,29.317,0,0,0,6.907,0,22.968,22.968,0,0,0,17.143-12.067,22.677,22.677,0,0,0,2.135-6.311,33.232,33.232,0,0,0,.136-6.259,21.875,21.875,0,0,0-6.311-12.831l-.889-.869Z" transform="translate(-1140.3 721.918)" fill="#fff"/>
  </g>
</svg>
