<svg xmlns="http://www.w3.org/2000/svg" xmlns:xlink="http://www.w3.org/1999/xlink" width="83.634" height="97.055" viewBox="0 0 83.634 97.055">
  <defs>
    <filter id="Rectangle_112" x="4.817" y="12.027" width="74" height="73" filterUnits="userSpaceOnUse">
      <feOffset dy="3" input="SourceAlpha"/>
      <feGaussianBlur stdDeviation="3" result="blur"/>
      <feFlood flood-opacity="0.161"/>
      <feComposite operator="in" in2="blur"/>
      <feComposite in="SourceGraphic"/>
    </filter>
    <filter id="Icon_ionic-ios-musical-note" x="0" y="0" width="83.634" height="97.055" filterUnits="userSpaceOnUse">
      <feOffset dy="3" input="SourceAlpha"/>
      <feGaussianBlur stdDeviation="11" result="blur-2"/>
      <feFlood flood-color="#fff" flood-opacity="0.302"/>
      <feComposite operator="in" in2="blur-2"/>
      <feComposite in="SourceGraphic"/>
    </filter>
  </defs>
  <g id="Group_80" data-name="Group 80" transform="translate(-722.973 -684.973)">
    <g transform="matrix(1, 0, 0, 1, 722.97, 684.97)" filter="url(#Rectangle_112)">
      <rect id="Rectangle_112-2" data-name="Rectangle 112" width="56" height="55" rx="27.5" transform="translate(13.82 18.03)" fill="#f35385"/>
    </g>
    <g transform="matrix(1, 0, 0, 1, 722.97, 684.97)" filter="url(#Icon_ionic-ios-musical-note)">
      <path id="Icon_ionic-ios-musical-note-2" data-name="Icon ionic-ios-musical-note" d="M26.6,3.39c-.351.067-8.813,1.8-9.127,1.86a.662.662,0,0,0-.6.6h0V24.9a2.06,2.06,0,0,1-.179.874,1.99,1.99,0,0,1-1.2.949c-.246.082-.583.157-.978.246-1.8.4-4.81,1.09-4.81,3.869a3.464,3.464,0,0,0,2.614,3.518,5.611,5.611,0,0,0,1.031.075,8.839,8.839,0,0,0,3.824-.986,4.024,4.024,0,0,0,1.8-3.57V12.718a.593.593,0,0,1,.478-.583l6.931-1.419a1.2,1.2,0,0,0,.956-1.173V3.958A.591.591,0,0,0,26.6,3.39Z" transform="translate(23.3 26.62)" fill="#fff"/>
    </g>
  </g>
</svg>
