<svg xmlns="http://www.w3.org/2000/svg" xmlns:xlink="http://www.w3.org/1999/xlink" width="1863.677" height="902.687" viewBox="0 0 1863.677 902.687">
  <defs>
    <filter id="Union_4" x="0" y="0" width="1863.677" height="902.687" filterUnits="userSpaceOnUse">
      <feOffset input="SourceAlpha"/>
      <feGaussianBlur stdDeviation="49.5" result="blur"/>
      <feFlood flood-color="#fff" flood-opacity="0.153"/>
      <feComposite operator="in" in2="blur"/>
      <feComposite in="SourceGraphic"/>
    </filter>
    <filter id="Path_15" x="706.527" y="237.863" width="458.244" height="60.965" filterUnits="userSpaceOnUse">
      <feOffset dy="4" input="SourceAlpha"/>
      <feGaussianBlur stdDeviation="6" result="blur-2"/>
      <feFlood flood-color="#00b4c4"/>
      <feComposite operator="in" in2="blur-2"/>
    </filter>
    <filter id="Path_15-2" x="706.527" y="237.863" width="458.244" height="60.965" filterUnits="userSpaceOnUse">
      <feOffset dy="3" input="SourceAlpha"/>
      <feGaussianBlur stdDeviation="3" result="blur-3"/>
      <feFlood flood-opacity="0.161" result="color"/>
      <feComposite operator="out" in="SourceGraphic" in2="blur-3"/>
      <feComposite operator="in" in="color"/>
      <feComposite operator="in" in2="SourceGraphic"/>
    </filter>
  </defs>
  <g id="Group_74" data-name="Group 74" transform="translate(21.5 -19.864)">
    <g transform="matrix(1, 0, 0, 1, -21.5, 19.86)" filter="url(#Union_4)">
      <path id="Union_4-2" data-name="Union 4" d="M1816.055,6601.689c-39.395.925-87.966.834-149.507-.737-27.494.171-50.035,1.065-65.2-1.364C1437.729,6590.672,1439,6155.917,1439,6155.917L1856.833,5997l49.141,33.221h20.648l282.8,4.68,6.518.108.067.084h4.416L2517.9,6035h20.648l49.14-33.221L3005.523,6160.7s8.786,316.639-106.72,413.094c-15.424,14.186-37.435,23.83-59.654,26.313-4.839,1.954-594.03,1.2-594.03,1.2-79.526,1.036-157.425,1.381-225.929,1.381C1929.725,6602.687,1856.272,6602.1,1816.055,6601.689Z" transform="translate(-1290.5 -5848.5)" fill="#121214"/>
    </g>
    <g data-type="innerShadowGroup">
      <g transform="matrix(1, 0, 0, 1, -21.5, 19.86)" filter="url(#Path_15)">
        <path id="Path_15-3" data-name="Path 15" d="M2475.391,332.137l21.344,21.343h375.314l21.344-21.343" transform="translate(-1748.74 -78.15)" fill="none" stroke="#00b4c4" stroke-linecap="round" stroke-width="3"/>
      </g>
      <g transform="matrix(1, 0, 0, 1, -21.5, 19.86)" filter="url(#Path_15-2)">
        <path id="Path_15-4" data-name="Path 15" d="M2475.391,332.137l21.344,21.343h375.314l21.344-21.343" transform="translate(-1748.74 -78.15)" fill="#fff"/>
      </g>
      <path id="Path_15-5" data-name="Path 15" d="M2475.391,332.137l21.344,21.343h375.314l21.344-21.343" transform="translate(-1770.244 -58.289)" fill="none" stroke="#00b4c4" stroke-linecap="round" stroke-width="3"/>
    </g>
  </g>
</svg>
