<svg xmlns="http://www.w3.org/2000/svg" width="33.528" height="32.137" viewBox="0 0 33.528 32.137">
  <g id="Group_62" data-name="Group 62" transform="translate(0.727 0.5)">
    <path id="Path_126" data-name="Path 126" d="M-12314.232-6049.335l16.707-.493s2.85-.066,5.186-4.5,7.306-13.1,7.306-13.1,4.2-5.022,2.827,1.214-9.4,17.813-9.813,18.693-5.457,9.149-5.8,9.153-11.974,0-11.974,0Z" transform="translate(12314.238 6069.339)" fill="none" stroke="#b4b7bd" stroke-width="1"/>
    <g id="Group_61" data-name="Group 61" transform="translate(11.834 10.322)">
      <path id="Path_120" data-name="Path 120" d="M-11501.512-4617.729s-3.883-1.793-1.115-7.029-.781-8.486-.781-8.486" transform="translate(11506.987 4637)" fill="none" stroke="#b4b7bd" stroke-linecap="round" stroke-width="1"/>
      <g id="Polygon_17" data-name="Polygon 17" transform="translate(0 2.248) rotate(-25)" fill="#fff">
        <path d="M 4.318960189819336 3.045976161956787 L 0.9999977946281433 3.045976161956787 L 2.659478902816772 0.833330512046814 L 4.318960189819336 3.045976161956787 Z" stroke="none"/>
        <path d="M 2.659478902816772 1.666664838790894 L 1.999996662139893 2.545976161956787 L 3.318961143493652 2.545976161956787 L 2.659478902816772 1.666664838790894 M 2.659478902816772 -3.814697265625e-06 L 5.318958759307861 3.545976161956787 L -9.5367431640625e-07 3.545976161956787 L 2.659478902816772 -3.814697265625e-06 Z" stroke="none" fill="#b4b7bd"/>
      </g>
    </g>
    <g id="Group_59" data-name="Group 59" transform="translate(5.515 11.701)">
      <path id="Path_120-2" data-name="Path 120" d="M-11501.512-4617.729s-3.883-1.793-1.115-7.029-.781-8.486-.781-8.486" transform="translate(11506.987 4637)" fill="none" stroke="#b4b7bd" stroke-linecap="round" stroke-width="1"/>
      <g id="Polygon_17-2" data-name="Polygon 17" transform="translate(0 2.248) rotate(-25)" fill="#fff">
        <path d="M 4.318960189819336 3.045976161956787 L 0.9999977946281433 3.045976161956787 L 2.659478902816772 0.833330512046814 L 4.318960189819336 3.045976161956787 Z" stroke="none"/>
        <path d="M 2.659478902816772 1.666664838790894 L 1.999996662139893 2.545976161956787 L 3.318961143493652 2.545976161956787 L 2.659478902816772 1.666664838790894 M 2.659478902816772 -3.814697265625e-06 L 5.318958759307861 3.545976161956787 L -9.5367431640625e-07 3.545976161956787 L 2.659478902816772 -3.814697265625e-06 Z" stroke="none" fill="#b4b7bd"/>
      </g>
    </g>
    <g id="Group_60" data-name="Group 60" transform="translate(0 11.701)">
      <path id="Path_120-3" data-name="Path 120" d="M-11501.512-4617.729s-3.883-1.793-1.115-7.029-.781-8.486-.781-8.486" transform="translate(11506.987 4637)" fill="none" stroke="#b4b7bd" stroke-linecap="round" stroke-width="1"/>
      <g id="Polygon_17-3" data-name="Polygon 17" transform="translate(0 2.248) rotate(-25)" fill="#fff">
        <path d="M 4.318960189819336 3.045976161956787 L 0.9999977946281433 3.045976161956787 L 2.659478902816772 0.833330512046814 L 4.318960189819336 3.045976161956787 Z" stroke="none"/>
        <path d="M 2.659478902816772 1.666664838790894 L 1.999996662139893 2.545976161956787 L 3.318961143493652 2.545976161956787 L 2.659478902816772 1.666664838790894 M 2.659478902816772 -3.814697265625e-06 L 5.318958759307861 3.545976161956787 L -9.5367431640625e-07 3.545976161956787 L 2.659478902816772 -3.814697265625e-06 Z" stroke="none" fill="#b4b7bd"/>
      </g>
    </g>
  </g>
</svg>
